<?xml version="1.0" standalone="no"?>
<!DOCTYPE svg PUBLIC "-//W3C//DTD SVG 20010904//EN"
 "http://www.w3.org/TR/2001/REC-SVG-20010904/DTD/svg10.dtd">
<svg version="1.0" xmlns="http://www.w3.org/2000/svg"
 width="72.000000pt" height="72.000000pt" viewBox="0 0 72.000000 72.000000"
 preserveAspectRatio="xMidYMid meet">
<metadata>
Created by potrace 1.14, written by Peter Selinger 2001-2017
</metadata>
<g transform="translate(0.000000,72.000000) scale(0.100000,-0.100000)"
fill="#000000" stroke="none">
<path d="M85 640 c-36 -5 -40 -8 -41 -35 -2 -54 -18 -320 -28 -483 l-3 -42 93
0 c90 0 94 1 95 23 1 12 2 45 4 72 1 28 3 79 4 115 3 78 7 69 47 -93 l29 -118
70 3 70 3 32 129 c17 70 34 131 37 134 3 3 6 -17 7 -44 1 -27 2 -76 4 -109 1
-33 3 -73 4 -88 l1 -28 93 3 92 3 -1 30 c-5 99 -16 295 -19 325 -2 19 -5 70
-6 114 -2 52 -8 80 -16 83 -7 3 -60 6 -118 7 l-106 1 -9 -35 c-7 -28 -30 -118
-55 -220 -2 -8 -4 -19 -4 -24 -3 -30 -27 54 -75 259 -5 18 -13 20 -83 20 -43
0 -96 -2 -118 -5z"/>
</g>
</svg>
