<?xml version="1.0" standalone="no"?>
<!DOCTYPE svg PUBLIC "-//W3C//DTD SVG 20010904//EN"
 "http://www.w3.org/TR/2001/REC-SVG-20010904/DTD/svg10.dtd">
<svg version="1.0" xmlns="http://www.w3.org/2000/svg"
 width="512.000000pt" height="512.000000pt" viewBox="0 0 512.000000 512.000000"
 preserveAspectRatio="xMidYMid meet">

<g transform="translate(0.000000,512.000000) scale(0.100000,-0.100000)"
fill="#000000" stroke="none">
<path d="M1445 4644 c-190 -29 -313 -64 -454 -130 -558 -260 -859 -843 -721
-1395 26 -104 122 -302 189 -389 27 -36 454 -542 948 -1125 l899 -1060 68 -35
c65 -33 75 -35 165 -35 83 0 103 4 151 27 30 14 67 37 82 50 39 34 1808 2129
1818 2153 4 11 28 53 53 93 111 180 166 363 174 582 10 282 -57 501 -225 727
-238 319 -626 519 -1047 540 -341 16 -669 -83 -935 -283 l-70 -53 -83 60
c-151 110 -376 208 -572 251 -88 19 -368 33 -440 22z m1808 -597 c60 -14 96
-29 113 -45 l24 -24 2 -272 3 -271 33 -3 33 -3 -3 -572 -3 -572 -24 -49 c-29
-58 -77 -108 -134 -138 -37 -21 -56 -23 -172 -23 -146 0 -177 10 -247 80 -66
66 -82 114 -82 245 0 131 16 179 82 245 68 68 101 79 250 83 l132 4 0 258 0
257 -37 7 c-65 10 -109 7 -176 -14 -81 -25 -133 -73 -196 -180 -120 -202 -327
-302 -528 -253 l-23 5 0 -413 c0 -413 0 -414 -24 -464 -31 -68 -104 -131 -174
-151 -81 -24 -262 -16 -318 13 -63 33 -97 66 -129 125 -29 51 -30 58 -30 178
0 117 2 128 27 176 15 29 46 68 69 87 62 53 113 67 251 67 l118 0 2 601 c3
684 -3 637 85 607 107 -37 215 -31 299 18 50 29 81 64 133 152 67 113 149 183
267 228 129 48 215 51 377 11z"/>
</g>
</svg>
